# File created by Blade
# Date/Time:  Tue Sep 28 14:35:47 2010
#---------------------------------------------------------
:version 1.10
:name HOM
:units
  mass 1.0
  length 1.000000
  angle deg
:documentation
     Acclaim Skeleton File
:root
   axis xyz
   order TX TY TZ RX RY RZ
   position 0.000000 0.000000 0.000000
   orientation 0 0 0
:bonedata
   begin
      id 1
      name LeftUpLeg_dum
      direction 1.000000 0.000000 0.000000
      length 3.677894
      axis 0.0 0.0 0.0 xyz
   end
   begin
      id 2
      name RightUpLeg_dum
      direction -1.000000 0.000000 0.000000
      length 3.677894
      axis 0.0 0.0 0.0 xyz
   end
   begin
      id 3
      name Spine_dum
      direction 0.000000 1.000000 0.000000
      length 0.039370
      axis 0.0 0.0 0.0 xyz
   end
   begin
      id 4
      name LeftUpLeg
      direction 0.000000 -1.000000 0.000000
      length 18.389491
      axis 0.0 0.0 0.0 xyz
      dof rx ry rz
   end
   begin
      id 5
      name LeftLeg
      direction 0.000000 -1.000000 0.000000
      length 16.918313
      axis 0.0 0.0 0.0 xyz
      dof rx ry rz
   end
   begin
      id 6
      name LeftFoot
      direction 0.000000 -0.258819 0.965926
      length 6.436326
      axis 15.0 0.0 0.0 xyz
      dof rx ry rz
   end
   begin
      id 7
      name LeftToeBase
      direction 0.000000 0.000000 1.000000
      length 2.952750
      axis 0.0 0.0 0.0 xyz
      dof rx ry rz
   end
   begin
      id 8
      name RightUpLeg
      direction 0.000000 -1.000000 0.000000
      length 18.389491
      axis 0.0 0.0 0.0 xyz
      dof rx ry rz
   end
   begin
      id 9
      name RightLeg
      direction 0.000000 -1.000000 0.000000
      length 16.918313
      axis 0.0 0.0 0.0 xyz
      dof rx ry rz
   end
   begin
      id 10
      name RightFoot
      direction 0.000000 -0.258819 0.965926
      length 6.436326
      axis 15.0 0.0 0.0 xyz
      dof rx ry rz
   end
   begin
      id 11
      name RightToeBase
      direction 0.000000 0.000000 1.000000
      length 2.952750
      axis 0.0 0.0 0.0 xyz
      dof rx ry rz
   end
   begin
      id 12
      name Spine
      direction 0.000000 1.000000 0.000000
      length 9.194745
      axis 0.0 0.0 0.0 xyz
      dof rx ry rz
   end
   begin
      id 13
      name Spine1
      direction 0.000000 1.000000 0.000000
      length 0.000000
      axis 0.0 0.0 0.0 xyz
      dof rx ry rz
   end
   begin
      id 14
      name Spine1_dum1
      direction 0.000000 1.000000 0.000000
      length 9.194745
      axis 0.0 0.0 0.0 xyz
   end
   begin
      id 15
      name Spine1_dum2
      direction 0.000000 1.000000 0.000000
      length 9.194745
      axis 0.0 0.0 0.0 xyz
   end
   begin
      id 16
      name Spine1_dum3
      direction 0.000000 1.000000 0.000000
      length 9.194745
      axis 0.0 0.0 0.0 xyz
   end
   begin
      id 17
      name Neck
      direction 0.000000 1.000000 0.000000
      length 4.229598
      axis 0.0 0.0 0.0 xyz
      dof rx ry rz
   end
   begin
      id 18
      name Head
      direction 0.000000 1.000000 0.000000
      length 4.527550
      axis 0.0 0.0 0.0 xyz
      dof rx ry rz
   end
   begin
      id 19
      name LeftShoulder
      direction 1.000000 -0.000004 0.000000
      length 5.516839
      axis 0.0 0.0 -90.0 xyz
      dof rx ry rz
   end
   begin
      id 20
      name LeftArm
      direction 1.000000 -0.000004 0.000000
      length 11.033679
      axis 0.0 0.0 -90.0 xyz
      dof rx ry rz
   end
   begin
      id 21
      name LeftForeArm
      direction 1.000000 -0.000004 0.000000
      length 10.114232
      axis 0.0 0.0 -90.0 xyz
      dof rx ry rz
   end
   begin
      id 22
      name LeftHand
      direction 0.000000 0.000000 0.000000
      length 0.000000
      axis 0.0 0.0 -90.0 xyz
      dof rx ry rz
   end
   begin
      id 23
      name LeftHand_dum1
      direction 0.000000 0.000000 0.000000
      length 0.000000
      axis 0.0 0.0 -90.0 xyz
   end
   begin
      id 24
      name LeftHand_dum2
      direction 1.000000 -0.000004 0.000000
      length 3.937000
      axis 0.0 0.0 -90.0 xyz
   end
   begin
      id 25
      name LeftHandThumb
      direction 0.000000 0.000000 1.000000
      length 3.937000
      axis 0.0 0.0 -90.0 xyz
      dof rx ry rz
   end
   begin
      id 26
      name RightShoulder
      direction -1.000000 -0.000004 0.000000
      length 5.516839
      axis 0.0 0.0 90.0 xyz
      dof rx ry rz
   end
   begin
      id 27
      name RightArm
      direction -1.000000 -0.000004 0.000000
      length 11.033679
      axis 0.0 0.0 90.0 xyz
      dof rx ry rz
   end
   begin
      id 28
      name RightForeArm
      direction -1.000000 -0.000004 0.000000
      length 10.114232
      axis 0.0 0.0 90.0 xyz
      dof rx ry rz
   end
   begin
      id 29
      name RightHand
      direction 0.000000 0.000000 0.000000
      length 0.000000
      axis 0.0 0.0 90.0 xyz
      dof rx ry rz
   end
   begin
      id 30
      name RightHand_dum1
      direction 0.000000 0.000000 0.000000
      length 0.000000
      axis 0.0 0.0 90.0 xyz
   end
   begin
      id 31
      name RightHand_dum2
      direction -1.000000 -0.000004 0.000000
      length 5.393690
      axis 0.0 0.0 90.0 xyz
   end
   begin
      id 32
      name RightHandThumb
      direction 0.000000 0.000000 1.000000
      length 3.937000
      axis 0.0 0.0 90.0 xyz
      dof rx ry rz
   end
:hierarchy
   begin
      root LeftUpLeg_dum RightUpLeg_dum Spine_dum
      LeftUpLeg_dum LeftUpLeg
      RightUpLeg_dum RightUpLeg
      Spine_dum Spine
      LeftUpLeg LeftLeg
      LeftLeg LeftFoot
      LeftFoot LeftToeBase
      RightUpLeg RightLeg
      RightLeg RightFoot
      RightFoot RightToeBase
      Spine Spine1
      Spine1 Spine1_dum1 Spine1_dum2 Spine1_dum3
      Spine1_dum1 Neck
      Spine1_dum2 LeftShoulder
      Spine1_dum3 RightShoulder
      Neck Head
      LeftShoulder LeftArm
      LeftArm LeftForeArm
      LeftForeArm LeftHand
      LeftHand LeftHand_dum1 LeftHand_dum2
      LeftHand_dum1 LeftHandThumb
      RightShoulder RightArm
      RightArm RightForeArm
      RightForeArm RightHand
      RightHand RightHand_dum1 RightHand_dum2
      RightHand_dum1 RightHandThumb
   end

# File created by Blade
# Date/Time:  Tue Sep 28 14:35:42 2010
# Frame Rate: 200.000 fps
#------------------------------------------------------
:FULLY-SPECIFIED
:DEGREES
1003
root  0.839997 37.885297 80.878111 4.064514 3.782376 -4.322899
LeftUpLeg  -26.992640 10.897273 4.400755
LeftLeg  39.558339 -0.000000 0.000000
LeftFoot  4.922516 15.313236 11.517613
LeftToeBase  -11.329940 0.000000 -0.000000
RightUpLeg  -11.923212 -26.950076 9.741855
RightLeg  20.292273 -0.000000 0.000000
RightFoot  -0.908514 3.690658 -17.943433
RightToeBase  -9.720171 0.000000 -0.000000
Spine  -15.215701 -0.131650 4.558289
Spine1  20.501617 -1.295917 6.422172
Neck  18.818877 1.750245 -8.672648
Head  -7.270101 -0.030802 2.919838
LeftShoulder  -9.944035 -2.572999 -34.976178
LeftArm  7.253555 41.265888 -28.613441
LeftForeArm  24.213263 -0.000000 0.000000
LeftHand  3.008828 -1.418906 -3.491676
LeftHandThumb  0.000000 -0.000000 0.000000
RightShoulder  2.560940 9.969302 19.608743
RightArm  1.184096 -39.078463 36.427342
RightForeArm  29.344775 -0.000000 0.000000
RightHand  6.432757 7.808057 0.715521
RightHandThumb  0.000000 -0.000000 0.000000
1004
root  0.862928 37.890242 80.999941 4.140614 3.707952 -4.206206
LeftUpLeg  -27.030014 10.763543 4.164418
LeftLeg  38.357172 -0.000000 0.000000
LeftFoot  4.631610 14.993895 11.631736
LeftToeBase  -11.237493 0.000000 -0.000000
RightUpLeg  -11.978868 -28.126081 9.612033
RightLeg  20.642115 -0.000000 0.000000
RightFoot  -1.476355 4.604635 -18.548950
RightToeBase  -9.646524 0.000000 -0.000000
Spine  -15.390571 -0.151618 4.588317
Spine1  20.778944 -1.356134 6.334349
Neck  18.694151 2.111944 -8.795988
Head  -7.298790 -0.128580 2.714731
LeftShoulder  -10.026496 -0.093876 -36.328576
LeftArm  8.883150 38.971999 -26.412399
LeftForeArm  24.727751 -0.000000 0.000000
LeftHand  2.596882 -2.283636 -3.423680
LeftHandThumb  0.000000 -0.000000 0.000000
RightShoulder  2.829672 9.572135 19.451148
RightArm  1.629156 -38.626716 36.157703
RightForeArm  29.505180 -0.000000 0.000000
RightHand  6.318789 7.978306 0.472791
RightHandThumb  0.000000 -0.000000 0.000000
1005
root  0.876498 37.891280 81.119704 4.291235 3.611188 -3.887726
LeftUpLeg  -27.091429 10.641953 3.742599
LeftLeg  37.080469 -0.000000 0.000000
LeftFoot  4.435182 14.591291 11.643786
LeftToeBase  -11.326376 0.000000 -0.000000
RightUpLeg  -12.083955 -29.076779 9.320071
RightLeg  20.941846 -0.000000 0.000000
RightFoot  -2.024137 5.281209 -19.184544
RightToeBase  -9.700542 0.000000 -0.000000
Spine  -15.279863 -0.013610 4.437389
Spine1  20.502043 -1.162504 6.220833
Neck  18.564014 2.481946 -9.441684
Head  -7.099439 -0.499189 3.618992
LeftShoulder  -10.143213 3.294802 -38.611485
LeftArm  10.727090 36.035209 -22.900137
LeftForeArm  25.493542 -0.000000 0.000000
LeftHand  2.282931 -1.669561 -4.131009
LeftHandThumb  0.000000 -0.000000 0.000000
RightShoulder  2.660245 10.098217 19.405551
RightArm  1.268605 -38.704445 36.452018
RightForeArm  29.543077 -0.000000 0.000000
RightHand  6.378425 7.479235 0.453208
RightHandThumb  0.000000 -0.000000 0.000000
1006
root  0.864591 37.879402 81.229826 4.325604 3.551404 -3.925842
LeftUpLeg  -27.175937 10.766237 3.677058
LeftLeg  36.025159 -0.000000 0.000000
LeftFoot  4.051858 14.058838 12.115786
LeftToeBase  -11.399592 0.000000 -0.000000
RightUpLeg  -12.146858 -29.756041 9.377344
RightLeg  21.327768 -0.000000 0.000000
RightFoot  -2.452396 5.675062 -19.562564
RightToeBase  -9.368689 0.000000 -0.000000
Spine  -15.189924 -0.048015 4.389019
Spine1  20.489144 -1.177088 6.194638
Neck  18.420279 2.387509 -9.294528
Head  -7.112669 -0.253224 3.354793
LeftShoulder  -10.249719 3.973567 -38.673197
LeftArm  11.067451 35.282441 -22.762149
LeftForeArm  25.474531 -0.000000 0.000000
LeftHand  1.997811 -1.669757 -4.054291
LeftHandThumb  0.000000 -0.000000 0.000000
RightShoulder  2.791619 10.388907 19.397607
RightArm  1.275123 -38.935064 36.451420
RightForeArm  29.634128 -0.000000 0.000000
RightHand  6.176700 7.808412 0.456740
RightHandThumb  0.000000 -0.000000 0.000000
1007
root  0.859376 37.872717 81.345639 4.382175 3.506130 -3.947467
LeftUpLeg  -27.196704 10.741142 3.625668
LeftLeg  34.842059 -0.000000 0.000000
LeftFoot  3.616955 13.483909 12.152340
LeftToeBase  -11.325280 0.000000 -0.000000
RightUpLeg  -12.190472 -30.523282 9.393556
RightLeg  21.710930 -0.000000 0.000000
RightFoot  -2.901987 6.144146 -20.142862
RightToeBase  -9.152105 0.000000 -0.000000
Spine  -15.144472 -0.062607 4.361374
Spine1  20.436852 -1.178447 6.166020
Neck  18.257121 2.570083 -9.389606
Head  -6.962479 -0.477035 3.484175
LeftShoulder  -10.347412 4.820603 -38.877567
LeftArm  11.547402 33.946120 -22.657172
LeftForeArm  25.049444 -0.000000 0.000000
LeftHand  2.157861 -2.216428 -4.134907
LeftHandThumb  0.000000 -0.000000 0.000000
RightShoulder  2.897829 10.364383 19.381705
RightArm  1.438671 -38.761614 36.367745
RightForeArm  29.640095 -0.000000 0.000000
RightHand  6.164819 7.916785 0.506019
RightHandThumb  0.000000 -0.000000 0.000000
1008
root  0.890279 37.886573 81.475158 4.484732 3.396837 -3.467571
LeftUpLeg  -26.967819 10.253577 3.164617
LeftLeg  33.266864 -0.000000 0.000000
LeftFoot  3.386906 13.038023 11.256172
LeftToeBase  -11.563876 0.000000 -0.000000
RightUpLeg  -12.230653 -31.211209 8.831467
RightLeg  22.104069 -0.000000 0.000000
RightFoot  -3.452565 6.703207 -20.436498
RightToeBase  -9.601981 0.000000 -0.000000
Spine  -15.513569 0.010650 4.091591
Spine1  20.926828 -1.049063 6.011635
Neck  18.284549 2.958751 -9.822525
Head  -7.083938 -0.692118 4.169705
LeftShoulder  -10.653287 9.229982 -41.204313
LeftArm  13.912950 30.352832 -19.074625
LeftForeArm  25.742840 -0.000000 0.000000
LeftHand  1.944682 -3.430630 -4.382164
LeftHandThumb  0.000000 -0.000000 0.000000
RightShoulder  3.167314 10.138216 19.333423
RightArm  1.609600 -38.263661 36.252455
RightForeArm  29.529060 -0.000000 0.000000
RightHand  6.454466 8.182519 0.061524
RightHandThumb  0.000000 -0.000000 0.000000
